<?xml version="1.0" encoding="UTF-8"?>
<!DOCTYPE svg PUBLIC "-//W3C//DTD SVG 1.1//EN" "http://www.w3.org/Graphics/SVG/1.1/DTD/svg11.dtd">
<!-- Creator: CorelDRAW X8 -->
<svg xmlns="http://www.w3.org/2000/svg" xml:space="preserve" width="397.764mm" height="331.647mm" version="1.1" style="shape-rendering:geometricPrecision; text-rendering:geometricPrecision; image-rendering:optimizeQuality; fill-rule:evenodd; clip-rule:evenodd"
viewBox="0 0 6524 5440"
 xmlns:xlink="http://www.w3.org/1999/xlink">
 <defs>
  <style type="text/css">
   <![CDATA[
    .fil0 {fill:none}
    .fil1 {fill:#FEFEFE}
   ]]>
  </style>
 </defs>
 <g id="图层_x0020_1">
  <metadata id="CorelCorpID_0Corel-Layer"/>
  <rect class="fil0" x="1" width="6523" height="5440"/>
  <g id="_2099903601792">
   <path class="fil1" d="M3406 626c1113,0 2016,902 2016,2015 0,116 -10,229 -29,339 -159,109 -340,212 -537,304 59,-131 100,-270 124,-415 163,-980 -752,-1870 -1197,-1671 -184,83 -215,266 -220,398 -9,278 -1,558 -1,837l-2 1260c0,68 37,381 -153,332 -30,-61 -12,-458 -12,-554l2 -1109c0,-60 30,-222 -68,-247 -87,-21 -194,25 -273,-16 -38,-34 -20,-476 -20,-554 0,-411 155,-247 364,-312 33,-70 28,-117 104,-184 -50,-15 -317,-5 -386,14 -247,69 -271,282 -281,492 -3,66 0,125 0,192 0,129 0,243 -1,373 0,217 10,1328 -3,1512 -5,78 -63,134 -132,146 -58,9 -130,-21 -191,-70 -703,-563 -676,-1704 103,-2232 78,-52 133,-59 153,-132 19,-69 27,-112 74,-181 -67,-6 -112,27 -176,60 -175,93 -325,209 -459,362 -168,191 -277,408 -336,624 -259,948 456,1854 891,1759 194,-42 271,-232 273,-406 2,-214 1,-413 1,-626 0,-106 -18,-554 21,-621l122 7c40,58 21,193 21,262l-2 1310c0,199 -58,388 240,337 235,-40 323,-201 323,-416l0 -175c213,-3 450,-33 702,-92 -94,109 -207,206 -339,286 -96,58 -185,80 -262,122l-128 227c91,3 320,-93 420,-147 262,-141 466,-338 608,-570l14 -4c196,-63 383,-138 557,-221 -256,820 -1021,1415 -1925,1415 -1113,0 -2015,-902 -2015,-2015 0,-1113 902,-2015 2015,-2015zm1165 2778c-74,28 -149,54 -226,78 -203,65 -400,111 -586,141l3 -1905c0,-112 -35,-453 263,-340 170,64 386,267 504,423 357,469 363,1118 42,1603z"/>
   <path class="fil1" d="M1434 1774c-633,345 -1047,802 -1002,1165 37,293 364,458 840,476 -699,86 -1222,-81 -1269,-456 -57,-463 633,-1079 1572,-1422 -53,76 -100,154 -141,237z"/>
   <path class="fil1" d="M5611 2816c326,-272 512,-566 481,-816 -36,-293 -364,-458 -840,-476 699,-86 1222,81 1269,456 44,352 -346,793 -947,1134 19,-97 32,-196 37,-298z"/>
  </g>
 </g>
</svg>
